<?xml version="1.0" encoding="utf-8"?>
<!-- Generator: Adobe Illustrator 23.1.0, SVG Export Plug-In . SVG Version: 6.00 Build 0)  -->
<svg version="1.1" xmlns="http://www.w3.org/2000/svg" xmlns:xlink="http://www.w3.org/1999/xlink" x="0px" y="0px"
	 viewBox="0 0 201 196" style="enable-background:new 0 0 201 196;" xml:space="preserve">
<style type="text/css">
	.st0{fill:#9D4AD3;stroke:#1B1464;stroke-width:2;stroke-linecap:round;stroke-linejoin:round;stroke-miterlimit:10;}
	.st1{fill:none;}
	.st2{fill:#FCAB45;stroke:#1B1464;stroke-width:2;stroke-linecap:round;stroke-linejoin:round;stroke-miterlimit:10;}
	.st3{fill:#EDE9DD;}
	.st4{fill:#662D91;stroke:#1B1464;stroke-width:2;stroke-linecap:round;stroke-linejoin:round;stroke-miterlimit:10;}
</style>
<g id="Layer_3">
</g>
<g id="Layer_2">
	<g>
		<path class="st0" d="M46.91,158.36"/>
		<path class="st0" d="M70.3,168.09"/>
		<path class="st0" d="M46.57,168.35"/>
		<path class="st0" d="M69.13,167.76"/>
	</g>
	<path class="st0" d="M165.43,162.45c0.35-3.68-4.02-7.44-8-13c0-0.11-2.07-1.88-2.06-1.99l9.06,0.99c0,0-2.99-5.93-5-14
		c-0.92-3.68-4.01-6.23-6.84-10.16c-0.17-0.58-0.33-1.17-0.51-1.74l7.35,4.9c0,0-2.66-6.17-3.87-8.41
		c-0.67-1.25-6.11-6.95-10.79-11.75c-3.59-5.35-8-9.92-13.07-13.6c-3.61-6.63-7.79-12.43-11.97-14.09
		c-11.27-4.48-24.55-13.45-27.78-17.48c-3.22-4.03,4.43,11.2,8.45,14.34c4.03,3.14-1.21,3.59-10.06,0.45
		c-8.86-3.14-11.27-8.07-11.27-8.07s2.01,11.65,6.04,13.89c4.03,2.24-10.87-0.9-10.87-0.9s2.17,4.8,6.85,7.81
		c-21.35,11.45-32.34,32.22-42.67,57.94c-2.9,0.14-4.4,2.02-4.03,6.85c0,0-2.87,10.88,1.73,12.15s128.68,0,128.68,0
		S166.31,163.66,165.43,162.45z"/>
	<g>
		<path class="st0" d="M171.99,147.28"/>
	</g>
	<g>
		<path class="st1" d="M69.43,167.45"/>
	</g>
	<g id="Eyes_2_">
		<path class="st2" d="M78.74,133.12c3.77,8.56,0.67,17.9-9.21,22.92s-19.99,6.74-23.77-1.82c-3.77-8.56,1.18-19.56,11.06-24.58
			C66.69,124.63,74.96,124.57,78.74,133.12z"/>
		<path class="st2" d="M80.16,111.11c1.15,3.88-1.37,7.48-7,8.69c-5.63,1.21-11.07,1.03-12.22-2.84s2.49-8,8.13-9.21
			C74.69,106.53,79.01,107.23,80.16,111.11z"/>
		<path class="st2" d="M106.18,114.54c0.49,5.37,5.43,9.46,13.09,9.64s14.39-1.4,13.9-6.76s-7.1-9.87-14.76-10.05
			C110.75,107.18,105.69,109.18,106.18,114.54z"/>
		<path class="st2" d="M93.63,138.27c-3.1,10.3,2.71,20.74,16.28,25.45c13.57,4.71,26.79,5.58,29.89-4.71
			c3.1-10.3-5.39-22.46-18.96-27.17C107.26,127.14,96.73,127.98,93.63,138.27z"/>
		<path class="st3" d="M64.5,135.47c0,1.86-1.63,5.84-5.44,5.84s-10.89,0.06-10.89-1.8c0-1.86,5.4-8.09,9.21-8.09
			S64.5,133.61,64.5,135.47z"/>
		<path class="st3" d="M110.56,135.27c0,1.86-1.63,5.84-5.44,5.84s-10.89,0.06-10.89-1.8c0-1.86,5.4-8.09,9.21-8.09
			S110.56,133.41,110.56,135.27z"/>
		<path class="st3" d="M123.69,112.15c-0.3,1.36-5.24,3.89-9.06,3.04c-3.81-0.85-6.73-1.59-6.43-2.95c1.15-2.27,5.35-4.37,9.16-3.52
			S124,110.79,123.69,112.15z"/>
		<path class="st3" d="M76.19,110.54c0,1.34-3.79,4.76-7.26,4.76s-6.14-0.08-6.14-1.43c0.56-2.38,3.79-5.24,7.26-5.24
			S76.19,109.2,76.19,110.54z"/>
	</g>
	<line class="st4" x1="0" y1="166.86" x2="201" y2="166.86"/>
	<path class="st0" d="M65.49,161.76c-3.32,2.81-8.17,2.55-3.83,9.45s11.49,15.06,12.77,15.06s-5.44-14.9-4.12-18.18
		s0.29-4.8,0.29-4.8"/>
	<path class="st0" d="M101.23,163.03c0,0,2.81,1.53,3.32,8.17c0.51,6.64-1.02,13.79-1.02,13.79c0,1.02,6.64-6.38,6.64-6.38
		s0.77-7.66-1.02-10.98c-1.79-3.32-3.57-5.36-3.57-5.36"/>
	<path class="st0" d="M161.23,144.9c-0.77,0.51,8.68-1.28,9.45,4.09c0.77,5.36,4.85,7.66,2.81,11.23s-5.62,5.62-10.47,5.11
		c-4.85-0.51-9.19-0.51-11.74-4.09c-2.55-3.57-5.62-10.72-1.79-13.02S161.23,144.9,161.23,144.9z"/>
	<path class="st0" d="M157.15,154.35c0,0-7.15,7.15-4.85,12.77c2.3,5.62,2.55,10.72,2.55,10.72s2.3,10.21,3.57,11.49
		s2.81-13.02,2.3-15.32c-0.51-2.3,1.02-9.96,1.02-10.72s1.53-6.13-0.77-7.66"/>
	<path class="st0" d="M177.57,161.24c-0.77,0.26-12.26,20.43-14.04,22.98c-1.79,2.55,13.02-10.21,13.53-11.23
		c0.51-1.02,6.13-7.91,4.6-9.19C180.13,162.52,177.57,161.24,177.57,161.24z"/>
	<path class="st0" d="M16.21,162.27c0,0-4.09,4.6-2.81,6.38c1.28,1.79,9.96,14.55,9.96,14.55s-4.34-16.85-4.09-18.38
		C19.53,163.29,16.21,162.27,16.21,162.27z"/>
	<path class="st0" d="M31.02,154.86c-4.85,4.34-8.68,4.09-5.36,6.89c3.32,2.81,6.13,4.6,7.4,4.09c1.28-0.51-0.26-3.06-0.51-4.85
		c-0.26-1.79,0-7.91,0-7.91L31.02,154.86z"/>
	<path class="st0" d="M27.96,160.99c0,0-5.36,1.79-2.04,7.91c3.32,6.13,5.87,16.34,7.66,18.13c1.79,1.79,8.94,8.68,8.94,8.68
		l-8.43-24.77l-1.28-7.15L27.96,160.99z"/>
</g>
</svg>
