<?xml version="1.0" encoding="utf-8"?>
<!-- Generator: Adobe Illustrator 23.1.0, SVG Export Plug-In . SVG Version: 6.00 Build 0)  -->
<svg version="1.1" xmlns="http://www.w3.org/2000/svg" xmlns:xlink="http://www.w3.org/1999/xlink" x="0px" y="0px"
	 viewBox="0 0 201 196" style="enable-background:new 0 0 201 196;" xml:space="preserve">
<style type="text/css">
	.st0{fill:#9D4AD3;stroke:#1B1464;stroke-width:2;stroke-linecap:round;stroke-linejoin:round;stroke-miterlimit:10;}
	.st1{fill:#FFFFFF;stroke:#1B1464;stroke-width:2;stroke-linecap:round;stroke-linejoin:round;stroke-miterlimit:10;}
	.st2{font-family:'FranklinGothic-Medium';}
	.st3{font-size:70.3769px;}
	.st4{fill:#1B1464;}
	.st5{fill:#FCAB45;stroke:#1B1464;stroke-width:2;stroke-linecap:round;stroke-linejoin:round;stroke-miterlimit:10;}
	.st6{fill:#EDE9DD;}
</style>
<g id="Layer_3">
</g>
<g id="Layer_4">
	<g>
		<path class="st0" d="M36.98,118.67l3.34,0.96l-10.47,16.88l4.02,0.92c-0.6,4.83-2.49,21.42-0.96,25.99
			c1.41,4.21,4.6-15.99,5.91-24.86l4.88,1.11l1.43-18.67l3.61,1.04c0,0,4.67-17.09,6.35-17.26c1.68-0.17,18.24-3.82,22.82-0.25
			c4.58,3.58,4.91-6.03,4.91-6.03l-27.4-3.33L36.98,118.67z"/>
		<path class="st0" d="M28.6,119.03l6.57-20.12l3.8,2.5c0,0,9.81-17.15,11.74-16.71c1.93,0.44,21.57,2.61,25.79,8.28
			c4.21,5.67,7.14-4.83,7.14-4.83l-30-13.96L26.62,93.28l3.51,2.31l-16.3,14.75l4.29,2.52c-1.96,5.12-8.5,22.76-8,28.39
			c0.47,5.19,9.44-15.97,13.27-25.28L28.6,119.03z"/>
	</g>
	<path class="st0" d="M161.68,86.62c0-0.1-1.99-1.81-1.98-1.91l8.72,0.95c0,0-2.87-5.71-4.81-13.46c-0.88-3.54-3.86-5.99-6.58-9.77
		c-0.16-0.56-0.32-1.13-0.49-1.68l7.07,4.72c0,0-2.56-5.93-3.72-8.09c-0.65-1.2-5.88-6.68-10.38-11.29
		c-3.45-5.15-7.69-9.54-12.57-13.08c-3.47-6.38-7.49-11.95-11.51-13.55c-10.84-4.31-23.61-12.93-26.71-16.81
		c-3.1-3.88,4.26,10.77,8.13,13.79c3.87,3.02-1.16,3.45-9.68,0.43c-8.52-3.02-10.84-7.76-10.84-7.76s1.94,11.2,5.81,13.36
		c3.87,2.15-10.45-0.86-10.45-0.86s2.09,4.61,6.59,7.51C67.75,40.13,57.19,60.11,47.25,84.84c-2.79,0.13-4.23,1.94-3.88,6.58
		c0.96,12.77,4.28,31.76,19.6,43.83c-0.08,0.75-0.13,1.51-0.16,2.29c-0.39,13.79,9.29,24.56,12.39,25.43
		c3.1,0.86-3.48-3.02-6.19-13.36c0,0,1-4.26,2.37-9.11c5.86,2.86,12.94,4.91,21.53,5.77c2.99,0.49,6.07,0.75,9.23,0.75
		c0.22,0,0.43-0.02,0.65-0.02c-0.36,4.99-0.86,9.27-0.86,9.27c-5.66,8.67-12.58,9.87-9.63,10.2s14.76-6.17,18.85-19.2
		c0.12-0.37,0.22-0.74,0.33-1.12c1.07-0.2,2.14-0.43,3.19-0.69l-0.07,0.26c6.97-0.43,11.23-3.45,15.1-4.74
		c3.87-1.29,38.52-20.32,39.68-41.86C169.7,95.58,165.51,91.96,161.68,86.62z"/>
	<g>
		<path class="st0" d="M148.46,115.92c6.04-0.81,8.85-0.08,10.39,1.1c1.54,1.18-1.74,21.16-1.74,21.16l3.95,1.15l-7.12,19.59
			l5.21,1.84c-2.77,9.68-8.89,31.88-5.62,28.51c3.55-3.65,9.27-21.44,10.89-26.64l4.29,1.52l-2.41-23.28l3.65,1.06l-7.06-34.74
			l-6.75-3.77c0.48-0.04-1.59,0.3-0.96,0c6.63-3.14,12.86-1.08,14.93-0.36c2.06,0.73,3.71,23.88,3.71,23.88l4.79-0.2l-2.82,24.16
			l6.4,0.09c-0.55,11.67-1.53,38.33,1.28,33.41c3.05-5.34,4.77-27,5.21-33.32l5.27,0.07l-8.98-24.68l4.43-0.19l-17.33-35.53
			l-16.37,3.41c0,0-4.24,1.04-5.32-0.36"/>
		<g>
			<rect x="45.32" y="120.83" class="st1" width="115.56" height="71.69"/>
			<text transform="matrix(0.8795 0 0 1 61.646 179.7373)" class="st0 st2 st3">GG</text>
		</g>
		<path class="st0" d="M50.19,109.33l-5.54,11.73l-4.48,24.97l2.55-0.89l-1.36,16.65l3-1.24c1.22,3.64,5.5,16.09,8.05,18.56
			c2.35,2.28-2.27-13.29-4.36-20.08l3.64-1.5l-5.29-13.68l2.77-0.96c0,0,4.54-23.83,5.6-24.73"/>
		<path class="st0" d="M143.58,119.64c4.84,0.1,10.1,3.03,10.1,3.03c1.1,1.27-2.76,16.31-2.76,16.31l2.96,1.77l-6.79,13.9l3.88,2.58
			c-2.79,7.03-8.99,23.21-6.24,21.27c2.98-2.11,8.58-14.9,10.18-18.65l3.2,2.13l-0.28-18.88l2.73,1.63l-3.08-28.92l-5.08-5.44
			c0,0-3.99-5.46-4.33-6.75"/>
	</g>
	<g>
		<path class="st4" d="M77.06,103.93c2.04,2.34,4.05,4.41,6.29,5.81c2.23,1.42,4.56,2.02,7.11,1.85c2.9-0.24,5.8-0.42,8.41-1.14
			c1.31-0.35,2.52-0.9,3.69-1.7c1.16-0.8,2.24-1.84,3.34-2.9c-0.5,1.45-1.17,2.85-2.17,4.12c-0.97,1.3-2.34,2.36-3.8,3.09
			c-2.96,1.48-6.07,2-9.08,2.41c-1.67,0.23-3.51,0.11-5.18-0.43c-1.68-0.54-3.21-1.47-4.43-2.63c-1.23-1.16-2.19-2.51-2.89-3.94
			C77.66,107.02,77.15,105.51,77.06,103.93z"/>
	</g>
	<g id="Eyes_3_">
		<path class="st5" d="M86,70.92c3.63,8.23,0.64,17.21-8.86,22.04c-9.5,4.82-19.23,6.48-22.85-1.75
			c-3.63-8.23,1.13-18.81,10.63-23.63C74.42,62.75,82.38,62.69,86,70.92z"/>
		<path class="st5" d="M87.37,49.74c1.1,3.73-1.32,7.19-6.74,8.35c-5.42,1.16-10.65,1-11.75-2.73c-1.1-3.73,2.4-7.7,7.81-8.86
			S86.27,46.01,87.37,49.74z"/>
		<path class="st5" d="M112.39,53.05c0.47,5.16,5.22,9.09,12.59,9.27s13.84-1.34,13.37-6.5s-6.82-9.49-14.19-9.67
			C116.79,45.97,111.92,47.89,112.39,53.05z"/>
		<path class="st5" d="M100.32,75.87c-2.98,9.9,2.6,19.95,15.65,24.47s25.76,5.37,28.74-4.53s-5.18-21.6-18.23-26.12
			C113.44,65.16,103.31,65.97,100.32,75.87z"/>
		<path class="st6" d="M72.32,73.18c0,1.79-1.57,5.62-5.23,5.62c-3.67,0-10.47,0.06-10.47-1.73s5.19-7.78,8.86-7.78
			C69.14,69.29,72.32,71.39,72.32,73.18z"/>
		<path class="st6" d="M116.6,72.98c0,1.79-1.57,5.62-5.23,5.62s-10.47,0.06-10.47-1.73s5.19-7.78,8.86-7.78
			S116.6,71.19,116.6,72.98z"/>
		<path class="st6" d="M129.24,50.75c-0.29,1.31-5.04,3.74-8.71,2.92c-3.67-0.82-6.47-1.53-6.18-2.84c1.11-2.19,5.14-4.21,8.81-3.39
			C126.82,48.26,129.53,49.44,129.24,50.75z"/>
		<path class="st6" d="M83.56,49.2c0,1.29-3.64,4.58-6.98,4.58s-5.91-0.08-5.91-1.37c0.54-2.29,3.64-5.04,6.98-5.04
			S83.56,47.91,83.56,49.2z"/>
	</g>
</g>
</svg>
