<?xml version="1.0" encoding="utf-8"?>
<!-- Generator: Adobe Illustrator 23.1.0, SVG Export Plug-In . SVG Version: 6.00 Build 0)  -->
<svg version="1.1" xmlns="http://www.w3.org/2000/svg" xmlns:xlink="http://www.w3.org/1999/xlink" x="0px" y="0px"
	 viewBox="0 0 201 196" style="enable-background:new 0 0 201 196;" xml:space="preserve">
<style type="text/css">
	.st0{fill:#9D4AD3;stroke:#1B1464;stroke-width:2;stroke-linecap:round;stroke-linejoin:round;stroke-miterlimit:10;}
	.st1{fill:#FCAB45;stroke:#1B1464;stroke-width:2;stroke-linecap:round;stroke-linejoin:round;stroke-miterlimit:10;}
	.st2{fill:#EDE9DD;}
	.st3{fill:#662D91;stroke:#1B1464;stroke-width:2;stroke-linecap:round;stroke-linejoin:round;stroke-miterlimit:10;}
</style>
<g id="Layer_3">
</g>
<g id="Layer_4">
	<g>
		<path class="st0" d="M30.59,126.17l3.52,1.01l-11.05,17.81l4.24,0.97c-0.63,5.09-2.63,22.59-1.01,27.41
			c1.49,4.45,4.85-16.87,6.23-26.22l5.15,1.18l1.5-19.69l3.81,1.09c0,0,4.93-18.03,6.69-18.2c1.77-0.18,19.24-4.03,24.07-0.26
			c4.83,3.77,5.18-6.36,5.18-6.36l-28.9-3.51L30.59,126.17z"/>
		<path class="st0" d="M51.87,121.63l-5.14,26.26l2.71-0.9l-1.72,17.54l3.18-1.25c1.22,3.86,5.53,17.06,8.18,19.71
			c2.44,2.44-2.17-14.06-4.26-21.25l3.87-1.52l-5.35-14.51l2.93-0.97c0,0-2.5-14.91-1.36-15.84c1.14-0.93,11.72-11.6,16.21-11.15
			c4.49,0.45,1.45-6.83,1.45-6.83L51.87,121.63z"/>
		<path class="st0" d="M21.76,126.54l6.93-21.22l4.01,2.64c0,0,10.35-18.1,12.39-17.63c2.04,0.47,22.76,2.75,27.2,8.74
			c4.44,5.99,7.53-5.09,7.53-5.09L48.17,79.25l-28.5,20.13l3.7,2.44L6.18,117.37l4.52,2.66c-2.06,5.4-8.97,24.01-8.43,29.95
			c0.49,5.48,9.96-16.84,14-26.67L21.76,126.54z"/>
	</g>
	<path class="st0" d="M68.44,147.12c6.18,3.02,13.65,5.18,22.71,6.08c3.15,0.52,6.4,0.79,9.74,0.79c0.23,0,0.46-0.02,0.69-0.02
		c-0.38,5.26-0.91,9.78-0.91,9.78c-5.97,9.14-13.27,10.41-10.16,10.76c3.11,0.35,15.57-6.51,19.88-20.25
		c0.12-0.39,0.24-0.79,0.35-1.18c1.13-0.21,2.26-0.45,3.37-0.72l-0.07,0.27c7.35-0.45,11.84-3.64,15.93-5
		c4.08-1.36,40.64-21.43,41.86-44.16c0.35-3.73-4.07-7.55-8.12-13.19c0-0.11-2.1-1.91-2.09-2.02l9.19,1c0,0-3.03-6.02-5.07-14.2
		c-0.93-3.74-4.07-6.32-6.94-10.31c-0.17-0.59-0.33-1.19-0.52-1.77l7.46,4.98c0,0-2.7-6.26-3.92-8.53
		c-0.68-1.27-6.2-7.05-10.95-11.91c-3.64-5.43-8.11-10.07-13.26-13.8c-3.66-6.73-7.9-12.61-12.14-14.29
		C114.02,14.88,100.55,5.79,97.28,1.7c-3.27-4.09,4.49,11.37,8.58,14.55c4.08,3.18-1.23,3.64-10.21,0.45
		c-8.98-3.18-11.43-8.18-11.43-8.18s2.04,11.82,6.13,14.09c4.08,2.27-11.03-0.91-11.03-0.91s2.2,4.86,6.95,7.93
		C64.6,41.24,53.47,62.32,42.98,88.41c-2.94,0.14-4.46,2.05-4.09,6.95c1.01,13.47,7.05,36.16,23.21,48.89
		C62.1,144.24,67.18,147.24,68.44,147.12z"/>
	<g>
		<path class="st0" d="M139.82,132.93c4.87,1.77,9.18,6.45,9.18,6.45c0.67,1.62-8.51,15.06-8.51,15.06l2.38,2.75l-11.75,11.31
			l3.03,3.87c-5.29,5.95-17.23,19.7-13.77,18.73c3.76-1.05,13.91-11.68,16.84-14.81l2.5,3.19l6.32-18.64l2.2,2.54l6.99-29.46
			l-3.24-7.08c0,0-2.14-6.74-2.03-8.12"/>
		<path class="st0" d="M152,116.7c6.37-0.85,9.34-0.08,10.96,1.16c1.62,1.25-1.83,22.32-1.83,22.32l4.17,1.22l-7.51,20.66l5.49,1.94
			c-2.93,10.21-9.38,33.63-5.93,30.08c3.74-3.86,9.78-22.62,11.49-28.11l4.52,1.6l-2.54-24.56l3.85,1.12l-7.44-36.65l-7.12-3.98
			c0.51-0.05-1.68,0.31-1.01,0c7-3.31,13.57-1.14,15.75-0.38c2.18,0.77,3.91,25.19,3.91,25.19l5.06-0.22l-2.97,25.49l6.76,0.09
			c-0.58,12.31-1.62,40.43,1.35,35.24c3.21-5.63,5.03-28.49,5.5-35.15l5.56,0.07l-9.47-26.03l4.67-0.2l-18.29-37.48l-17.27,3.59
			c0,0-4.48,1.1-5.61-0.38"/>
	</g>
	<g id="Eyes_4_">
		<path class="st1" d="M84.8,92c-1.81,4.49-8.98,5.9-18.73,2.68S48.13,87.1,49.94,82.6c1.81-4.49,11.18-5.53,20.94-2.3
			S86.61,87.51,84.8,92z"/>
		<path class="st1" d="M83.78,69.38c-0.53,2.28-3.82,3.04-8.69,1.48s-9.07-3.72-8.55-6s4.9-2.87,9.77-1.3
			C81.17,65.12,84.3,67.09,83.78,69.38z"/>
		<path class="st1" d="M109.53,66.32c0.37,2.66,4.56,4.65,11.12,4.66c6.56,0.02,12.34-0.84,11.97-3.5
			c-0.37-2.66-5.98-4.83-12.54-4.85C113.52,62.62,109.17,63.66,109.53,66.32z"/>
		<path class="st1" d="M95.29,95.41c1.46,6.99,11.32,10.75,26,8.36s27.41-6.81,25.95-13.8S132.68,79.24,118,81.63
			C103.32,84.01,93.82,88.41,95.29,95.41z"/>
		<path class="st2" d="M80.92,86.65c0,1.02-1.25,3.21-4.17,3.21c-2.92,0-8.34,0.04-8.34-0.99s4.14-4.44,7.06-4.44
			S80.92,85.63,80.92,86.65z"/>
		<path class="st2" d="M142.04,88.18c0,0.87-1.34,2.72-4.48,2.72s-8.97,0.03-8.97-0.84c0-0.87,4.45-3.76,7.59-3.76
			S142.04,87.31,142.04,88.18z"/>
		<path class="st2" d="M130.24,66.75c-0.13,0.58-2.38,1.61-4.15,1.21c-1.77-0.39-3.12-0.73-2.99-1.31c0.51-0.95,2.43-1.81,4.2-1.42
			C129.06,65.64,130.36,66.18,130.24,66.75z"/>
		<path class="st2" d="M82.47,68.57c-0.29,0.6-2.97,1.18-4.75,0.32c-1.78-0.86-3.13-1.57-2.84-2.17c0.8-0.92,3.08-1.39,4.86-0.53
			C81.51,67.05,82.76,67.97,82.47,68.57z"/>
	</g>
	<path class="st3" d="M67.8,149.16"/>
	<path class="st3" d="M101.15,154.56c0,0,0-5.07-1.01-7.1"/>
	<path class="st0" d="M64.17,145.45c0,0,6.04-11.57,5.87-13.64s-0.52-8.46-0.52-8.46s3.8,0.17,4.49,5.7
		c0.69,5.53,16.06,3.63,18.82,3.63s-14.5,3.11-15.89,3.8c-1.38,0.69-4.66,11.22-6.39,11.4C68.83,148.04,64.17,145.45,64.17,145.45z"
		/>
	<path class="st0" d="M57.61,105.91c0,0-9.67,6.22-1.21,8.29c8.46,2.07,28.66-1.21,28.66-1.21s26.59,11.4,36.95,8.98
		c10.36-2.42,10.01-7.94,5.87-9.15"/>
</g>
</svg>
