<?xml version="1.0" encoding="utf-8"?>
<!-- Generator: Adobe Illustrator 23.1.0, SVG Export Plug-In . SVG Version: 6.00 Build 0)  -->
<svg version="1.1" id="Layer_2" xmlns="http://www.w3.org/2000/svg" xmlns:xlink="http://www.w3.org/1999/xlink" x="0px" y="0px"
	 viewBox="0 0 201 196" style="enable-background:new 0 0 201 196;" xml:space="preserve">
<style type="text/css">
	.st0{fill:#9D4AD3;stroke:#1B1464;stroke-width:2;stroke-linecap:round;stroke-linejoin:round;stroke-miterlimit:10;}
	.st1{display:none;}
	.st2{display:inline;fill:#1B1464;}
	
		.st3{display:inline;fill:#FCAB45;stroke:#1B1464;stroke-width:2;stroke-linecap:round;stroke-linejoin:round;stroke-miterlimit:10;}
	.st4{display:inline;fill:#EDE9DD;}
	.st5{fill:#662D91;stroke:#1B1464;stroke-width:2;stroke-linecap:round;stroke-linejoin:round;stroke-miterlimit:10;}
	.st6{fill:#FFFFFF;stroke:#1B1464;stroke-width:2;stroke-linecap:round;stroke-linejoin:round;stroke-miterlimit:10;}
	.st7{fill:url(#SVGID_1_);stroke:#1B1464;stroke-miterlimit:10;}
	.st8{fill:url(#SVGID_2_);stroke:#1B1464;stroke-miterlimit:10;}
	.st9{fill:url(#SVGID_3_);stroke:#1B1464;stroke-miterlimit:10;}
	.st10{fill:url(#SVGID_4_);stroke:#1B1464;stroke-miterlimit:10;}
	.st11{fill:url(#SVGID_5_);stroke:#1B1464;stroke-width:2;stroke-miterlimit:10;}
	.st12{fill:url(#SVGID_6_);stroke:#1B1464;stroke-width:2;stroke-miterlimit:10;}
	.st13{fill:url(#SVGID_7_);stroke:#1B1464;stroke-width:2;stroke-miterlimit:10;}
	.st14{fill:url(#SVGID_8_);stroke:#1B1464;stroke-width:2;stroke-miterlimit:10;}
	.st15{fill:#1A1466;}
</style>
<g>
	<path class="st0" d="M12.82,112.45l2.99-1.37l-12-15l3.63-1.43c-1.19-4.61-5.15-20.47-4.33-25.11c0.76-4.28,6.4,14.92,8.79,23.35
		l4.41-1.73l3.79,17.94l3.24-1.49c0,0,6.61,15.97,8.2,15.91c1.59-0.06,17.52,1.29,21.32-2.8c3.8-4.08,5.38,5.2,5.38,5.2l-25.13,6.88
		L12.82,112.45z"/>
	<path class="st0" d="M40,151.35l-19.26-8.55l2.07-1.43l-11.91-6.88l2.55-1.59c-1.73-2.6-7.58-11.59-7.76-14.61
		c-0.17-2.78,7.57,7.93,10.9,12.65l3.1-1.93l6.09,10.3l2.24-1.55c0,0,7.92,8.54,9.14,8.19c1.21-0.35,13.77-2.64,15.99-5.9
		c2.22-3.26,5.07,2.15,5.07,2.15L40,151.35z"/>
	<path class="st0" d="M47.94,59.34l-10.9,17.61l4.3,0.93c0,0-6.61,17.86-5.04,18.88c1.57,1.02,15.73,12.9,22.67,12.04
		c6.95-0.86,0.93,7.99,0.93,7.99l-29.62-11.18l-2.93-30.77l3.97,0.86l0.66-20.68l4.63,1.25c2.59-4.67,11.65-20.65,16.19-23.98
		c4.19-3.08-5.95,16.84-10.5,25.52L47.94,59.34z"/>
</g>
<path class="st0" d="M153.42,120.62c0-0.1-1.87-1.66-1.87-1.76l8.21,0.87c0,0-2.71-5.24-4.53-12.37c-0.83-3.25-3.64-5.5-6.2-8.98
	c-0.15-0.52-0.3-1.04-0.46-1.54l6.66,4.33c0,0-2.41-5.45-3.5-7.43c-0.61-1.1-5.54-6.14-9.78-10.38c-3.25-4.73-7.25-8.77-11.84-12.02
	c-3.27-5.86-7.05-10.98-10.84-12.45c-10.21-3.96-22.25-11.88-25.17-15.44c-2.92-3.56,4.01,9.9,7.66,12.67
	c3.65,2.77-1.09,3.17-9.12,0.4c-8.02-2.77-10.21-7.13-10.21-7.13s1.82,10.3,5.47,12.27c3.65,1.98-9.85-0.79-9.85-0.79
	s1.96,4.24,6.21,6.9c-19.35,10.11-29.3,28.47-38.66,51.19c-2.63,0.12-3.98,1.78-3.66,6.05c0.9,11.73,4.03,29.18,18.47,40.27
	c-0.07,0.69-0.13,1.39-0.15,2.1c-0.36,12.67,8.75,22.57,11.67,23.36c2.92,0.79-3.28-2.77-5.84-12.28c0,0,0.94-3.92,2.24-8.37
	c5.52,2.63,12.19,4.51,20.28,5.3c2.81,0.45,5.72,0.69,8.7,0.69c0.21,0,0.41-0.02,0.61-0.02c-0.34,4.58-0.81,8.52-0.81,8.52
	c-5.33,7.96-11.86,9.07-9.08,9.37s13.91-5.67,17.76-17.64c0.11-0.34,0.21-0.68,0.31-1.02c1.01-0.18,2.01-0.39,3.01-0.63l-0.06,0.24
	c6.56-0.4,10.58-3.17,14.22-4.36c3.65-1.19,36.29-18.67,37.39-38.47C160.98,128.86,157.03,125.53,153.42,120.62z"/>
<g>
	<path class="st0" d="M157.44,133.81c1.59,4.18,5.23,7.79,5.23,7.79c1.21,0.54,10.28-7.78,10.28-7.78l2.13,1.99l7.38-10.5l2.98,2.53
		c3.93-4.75,13.05-15.48,12.58-12.45c-0.51,3.29-7.5,12.38-9.56,15.01l2.45,2.08l-12.99,5.98l1.97,1.84l-20.73,6.86l-5.3-2.63
		c0,0-4.98-1.67-5.97-1.54"/>
	<path class="st0" d="M151.44,107.49c5.5,1.61,8.22,1.35,9.83,0.48c1.61-0.87,1.51-19.71,1.51-19.71l3.85-0.49l-3.72-19.04
		l5.12-0.94c-1.15-9.3-3.56-30.61-1.01-27.04c2.76,3.87,5.46,21.06,6.19,26.08l4.21-0.78l-5.68,21.07l3.55-0.45l-11.71,30.93
		l-6.84,2.5c0.44,0.11-1.44-0.5-0.89-0.14c5.71,3.84,11.81,2.85,13.84,2.48c2.03-0.37,6.98-21.43,6.98-21.43l4.43,0.88l0.95-22.63
		l5.97,0.84c1.21-10.81,4.24-35.47,6.13-30.54c2.05,5.35,0.44,25.52-0.08,31.4l4.92,0.7l-12.01,21.4l4.09,0.81l-21.39,30.18
		l-14.73-5.5c0,0-3.8-1.57-5.01-0.44"/>
</g>
<g class="st1">
	<path class="st2" d="M73.69,136.53c1.98,2.15,3.91,4.01,6.02,5.25c2.1,1.26,4.24,1.77,6.63,1.62c2.71-0.21,5.41-0.36,7.86-0.98
		c1.23-0.3,2.37-0.78,3.47-1.49c1.09-0.72,2.13-1.66,3.2-2.63c-0.46,1.36-1.1,2.68-2.04,3.87c-0.92,1.22-2.22,2.2-3.6,2.88
		c-2.78,1.37-5.69,1.87-8.51,2.25c-1.56,0.23-3.29,0.11-4.87-0.37c-1.59-0.5-3.04-1.35-4.2-2.43c-1.17-1.07-2.09-2.34-2.76-3.69
		C74.24,139.44,73.76,138.02,73.69,136.53z"/>
</g>
<g id="Eyes" class="st1">
	<path class="st3" d="M82.12,106.19c3.42,7.56,0.61,15.81-8.35,20.25s-18.12,5.95-21.53-1.61s1.07-17.28,10.02-21.72
		C71.21,98.69,78.7,98.63,82.12,106.19z"/>
	<path class="st3" d="M83.41,86.74c1.04,3.43-1.24,6.61-6.35,7.67c-5.1,1.07-10.03,0.91-11.07-2.51c-1.04-3.43,2.26-7.07,7.36-8.14
		C78.46,82.69,82.37,83.31,83.41,86.74z"/>
	<path class="st3" d="M106.98,89.78c0.44,4.74,4.92,8.35,11.86,8.52c6.94,0.16,13.04-1.24,12.6-5.98
		c-0.44-4.74-6.43-8.72-13.37-8.88C111.13,83.27,106.54,85.03,106.98,89.78z"/>
	<path class="st3" d="M95.61,110.74c-2.81,9.1,2.45,18.33,14.75,22.49s24.27,4.93,27.08-4.16c2.81-9.1-4.88-19.84-17.18-24
		C107.97,100.9,98.42,101.65,95.61,110.74z"/>
	<path class="st4" d="M69.22,108.27c0,1.64-1.47,5.16-4.93,5.16c-3.46,0-9.86,0.06-9.86-1.59c0-1.64,4.89-7.15,8.35-7.15
		C66.23,104.69,69.22,106.62,69.22,108.27z"/>
	<path class="st4" d="M110.95,108.09c0,1.64-1.47,5.16-4.93,5.16c-3.46,0-9.86,0.06-9.86-1.59c0-1.64,4.89-7.15,8.35-7.15
		C107.96,104.52,110.95,106.44,110.95,108.09z"/>
	<path class="st4" d="M122.85,87.66c-0.28,1.2-4.75,3.44-8.21,2.69c-3.46-0.75-6.1-1.41-5.83-2.61c1.04-2.01,4.85-3.86,8.3-3.11
		S123.13,86.46,122.85,87.66z"/>
	<path class="st4" d="M79.81,86.24c0,1.19-3.43,4.21-6.58,4.21s-5.56-0.07-5.56-1.26c0.51-2.1,3.43-4.63,6.58-4.63
		S79.81,85.05,79.81,86.24z"/>
</g>
<path class="st5" d="M69.16,170.1c0,0,0.91-5.3,2.72-6.18"/>
<path class="st5" d="M97.24,175.4c0,0,0-4.42-0.91-6.18"/>
<rect x="53.16" y="3" class="st6" width="108.88" height="65.87"/>
<g>
	<linearGradient id="SVGID_1_" gradientUnits="userSpaceOnUse" x1="71.1216" y1="63.4557" x2="71.1216" y2="8.1132">
		<stop  offset="0" style="stop-color:#FDAA45"/>
		<stop  offset="1" style="stop-color:#FCD30F"/>
	</linearGradient>
	<path class="st7" d="M81.76,63.46h-5.17V39.41H65.65v24.04h-5.17V8.11h5.17v22.75h10.95V8.11h5.17V63.46z"/>
	<linearGradient id="SVGID_2_" gradientUnits="userSpaceOnUse" x1="96.6178" y1="63.4557" x2="96.6178" y2="8.1132">
		<stop  offset="0" style="stop-color:#FDAA45"/>
		<stop  offset="1" style="stop-color:#FCD30F"/>
	</linearGradient>
	<path class="st8" d="M99.6,63.46h-5.48V40.1L84.35,8.11h6.26l6.81,22.83l6.51-22.83h4.96L99.6,40.1V63.46z"/>
	<linearGradient id="SVGID_3_" gradientUnits="userSpaceOnUse" x1="122.2611" y1="63.4557" x2="122.2611" y2="8.1132">
		<stop  offset="0" style="stop-color:#FDAA45"/>
		<stop  offset="1" style="stop-color:#FCD30F"/>
	</linearGradient>
	<path class="st9" d="M116.62,63.46h-5.17V8.11h11.74c3.35,0,5.83,1.63,7.45,4.89s2.43,7.1,2.43,11.53c0,5.05-0.88,9.15-2.63,12.28
		s-3.97,4.7-6.66,4.7h-7.16V63.46z M116.62,32.97h6.11c1.6,0,2.82-0.76,3.66-2.27c0.84-1.51,1.26-3.53,1.26-6.04
		c0-2.27-0.39-4.22-1.17-5.84s-2.18-2.43-4.21-2.43h-5.65V32.97z"/>
	<linearGradient id="SVGID_4_" gradientUnits="userSpaceOnUse" x1="146.5493" y1="63.4557" x2="146.5493" y2="8.1132">
		<stop  offset="0" style="stop-color:#FDAA45"/>
		<stop  offset="1" style="stop-color:#FCD30F"/>
	</linearGradient>
	<path class="st10" d="M155.87,63.46h-18.64V8.11h18.45v8.23H142.4v15h10.67v8.03H142.4v15.49h13.47V63.46z"/>
</g>
<linearGradient id="SVGID_5_" gradientUnits="userSpaceOnUse" x1="70.4699" y1="123.7235" x2="70.4699" y2="85.7131">
	<stop  offset="0" style="stop-color:#FDAA45"/>
	<stop  offset="1" style="stop-color:#FCD30F"/>
</linearGradient>
<path class="st11" d="M75.32,85.71c-0.72,2.24-5.53,18.24-19.5,17.94c-10.29-0.22,7.49,5.4,7.49,5.4s3.37,2.85,4.09,9.58
	c0.72,6.73,1.65,4.84,1.65,4.84s-0.96-13.09,9.15-14.21s10.11-2.8,10.11-2.8s-13,0-13-5.61C75.32,95.25,75.32,85.71,75.32,85.71z"/>
<linearGradient id="SVGID_6_" gradientUnits="userSpaceOnUse" x1="112.0446" y1="97.4433" x2="112.0446" y2="75.3363">
	<stop  offset="0" style="stop-color:#FDAA45"/>
	<stop  offset="1" style="stop-color:#FCD30F"/>
</linearGradient>
<path class="st12" d="M114.87,75.34c-0.42,1.3-3.21,10.61-11.34,10.44c-5.98-0.13,4.36,3.14,4.36,3.14s1.96,1.66,2.38,5.57
	c0.42,3.91,0.96,2.82,0.96,2.82s-0.56-7.61,5.32-8.27c5.88-0.65,5.88-1.63,5.88-1.63s-7.56,0-7.56-3.26S114.87,75.34,114.87,75.34z"
	/>
<linearGradient id="SVGID_7_" gradientUnits="userSpaceOnUse" x1="119.4799" y1="129.4758" x2="119.4799" y2="86.9749">
	<stop  offset="0" style="stop-color:#FDAA45"/>
	<stop  offset="1" style="stop-color:#FCD30F"/>
</linearGradient>
<path class="st13" d="M125.87,86.97c-0.86,2.51-4.29,19.78-23.31,20.06c-12.3-0.24,14.04,8.29,14.04,8.29s-1.05,0.94-0.19,8.46
	c0.86,7.52,1.97,5.41,1.97,5.41s-0.04-13.63,12.05-14.88s8.85-2.02,8.85-2.02s-11.62-0.79-11.62-7.06
	C124.9,102.72,125.87,86.97,125.87,86.97z"/>
<linearGradient id="SVGID_8_" gradientUnits="userSpaceOnUse" x1="82.9005" y1="95.9531" x2="82.9005" y2="76.7607">
	<stop  offset="0" style="stop-color:#FDAA45"/>
	<stop  offset="1" style="stop-color:#FCD30F"/>
</linearGradient>
<path class="st14" d="M85.79,76.76c-0.39,1.13-1.94,8.93-10.53,9.06c-5.55-0.11,6.34,3.74,6.34,3.74s-0.48,0.42-0.09,3.82
	c0.39,3.4,0.89,2.44,0.89,2.44s-0.02-6.16,5.44-6.72c5.46-0.57,4-0.91,4-0.91s-5.25-0.36-5.25-3.19
	C85.35,83.87,85.79,76.76,85.79,76.76z"/>
<ellipse class="st15" cx="81.84" cy="143.24" rx="3.7" ry="13.31"/>
</svg>
