<?xml version="1.0" encoding="utf-8"?>
<!-- Generator: Adobe Illustrator 23.1.0, SVG Export Plug-In . SVG Version: 6.00 Build 0)  -->
<svg version="1.1" xmlns="http://www.w3.org/2000/svg" xmlns:xlink="http://www.w3.org/1999/xlink" x="0px" y="0px"
	 viewBox="0 0 201 196" style="enable-background:new 0 0 201 196;" xml:space="preserve">
<style type="text/css">
	.st0{fill:#9D4AD3;stroke:#1B1464;stroke-width:2;stroke-linecap:round;stroke-linejoin:round;stroke-miterlimit:10;}
	.st1{fill:#1B1464;}
	.st2{fill:#662D91;stroke:#1B1464;stroke-width:2;stroke-linecap:round;stroke-linejoin:round;stroke-miterlimit:10;}
	.st3{fill:url(#SVGID_1_);}
</style>
<g id="Layer_3">
</g>
<g id="Layer_4">
	<path class="st0" d="M51.43,187.04c6.61,1.54,14.25,1.97,23.16,0.84c3.14-0.2,6.32-0.65,9.54-1.38c0.22-0.05,0.44-0.12,0.66-0.17
		l8.6-2.87c1.04-0.45,2.07-0.93,3.07-1.44l-0.01,0.28c6.96-2.06,16.74-10.21,19.14-12.42c0.73-0.67,1.52-1.42,2.34-2.23
		c10.02-9.8,26.03-28.99,23.2-45.33c-0.48-3.66-5.58-6.36-10.7-10.88c-0.02-0.11-2.43-1.37-2.46-1.48l9.05-1.06
		c0,0-4.24-5.11-8-12.53c-1.72-3.38-5.3-5.17-8.94-8.37c-0.29-0.53-0.58-1.07-0.89-1.59l8.26,3.14c0,0-3.97-5.42-5.65-7.33
		c-0.94-1.07-7.51-5.4-13.15-9.03c-4.7-4.41-10.01-7.88-15.78-10.34c-5-5.66-10.37-10.37-14.81-11.06
		c-11.99-1.85-26.94-7.61-30.98-10.82c-4.04-3.21,6.82,9.93,11.45,12.09c4.63,2.16-0.38,3.76-9.71,2.69
		c-9.33-1.08-12.79-5.34-12.79-5.34s4.57,10.91,8.99,12.19c4.42,1.28-10.79,1.56-10.79,1.56s3.19,4.19,8.43,6.08
		c-18.25,15.93-24.31,38.64-28.63,66.02c-2.8,0.78-3.83,2.95-2.4,7.58c3.94,12.72,11.73,31.2,30.06,39.87
		c0.1,0.78,0.22,1.56,0.37,2.35"/>
	<g>
		<g>
			<path class="st1" d="M75.42,127.04c-0.37,1.51-0.28,3.17,0.6,4.03c0.42,0.43,0.95,0.73,1.6,0.89c0.3,0.1,0.66,0.13,0.98,0.21
				l1.13,0.16c3.03,0.36,6.06,0.71,9.05,0.82c2.98,0.12,5.98,0.05,8.68-0.72l0.97-0.36c0.3-0.16,0.59-0.32,0.9-0.47
				c0.65-0.39,1.29-0.81,1.9-1.25c0.64-0.42,1.23-0.88,1.81-1.37c0.29-0.24,0.56-0.5,0.81-0.79c0.24-0.28,0.5-0.58,0.55-0.97
				c0.12,0.4-0.03,0.82-0.16,1.2c-0.15,0.38-0.35,0.75-0.56,1.09c-0.43,0.69-0.94,1.33-1.47,1.93c-0.54,0.6-1.11,1.16-1.69,1.71
				c-0.34,0.28-0.69,0.54-1.05,0.8l-1.14,0.63c-1.55,0.75-3.2,1.12-4.82,1.35c-1.63,0.23-3.25,0.25-4.86,0.19
				c-3.21-0.13-6.35-0.68-9.4-1.54c-1.39-0.37-3.47-0.98-4.44-2.7c-0.47-0.85-0.56-1.81-0.39-2.64
				C74.58,128.42,74.94,127.67,75.42,127.04z"/>
		</g>
		<path class="st0" d="M16.26,156.19l8.24,14.17l30.97,2.22l-1.12-3.43l20.64-0.79l-1.55-4c4.51-2.29,16.45-9.99,19.5-13.97
			c2.81-3.67-13.01,5.02-21.41,9.05l-1.88-4.86l-16.92,9.63l-1.21-3.72c0,0-17.45,5.91-18.57,4.57l-6.74-2.99l-2.81-6.88"/>
		<path class="st0" d="M10.71,143.35l17.86,14.45l25.74-5.76l-1.88-2.09l16.52-5.4l-2.39-2.38c3-2.63,13.21-11.75,14.56-15.19
			c1.24-3.17-11.83,7.53-17.5,12.27l-2.9-2.89l-10.98,10.58l-2.04-2.26c0,0-12.47,8.16-13.76,7.5l-10.51-6.73"/>
		<path class="st0" d="M14.19,149.39l1.24,25.68l21.09,20.19l0.54-4.06l18.25,2.58l0.98-3c5.69-0.28,29.65-11.33,34.8-14.16
			c4.75-2.61-22.18,8.95-32.65,9.2l0.47-6.62l-19.41,2.97l-1.06-3.15c0,0-15.04-7.77-15.43-9.8l-2.39-9.64"/>
	</g>
	<g>
		<path class="st0" d="M103.22,107.31c3.58,3.63,20.74-13.32,20.74-13.32c1.69-0.05,9.5-13.67,9.5-13.67l3.39,1.01l4.88-15.05
			l4.63,1.14c2.94-7.12,9.86-23.33,10.47-19.85c0.67,3.77-4.29,17.12-5.78,21l3.81,0.94l-13.52,13.17l3.13,0.94l-23.44,23.75
			l-12.91,7.73"/>
		<path class="st0" d="M111.14,118.8c3.93,4.96,16.61-8.22,18.59-7.96c1.98,0.26,13.66-16.52,13.66-16.52l3.76,2.03l8.54-19.28
			l5.19,2.44c4.77-8.99,15.9-29.44,15.96-24.64c0.06,5.21-8.24,22.18-10.71,27.11l4.27,2.01l-18.25,15.05l3.47,1.87l-29.82,19.95
			l-7.39,6.68c0.33,0.38-2.73,2.23-2.47,2.9c10.55,0.49,9.44-1.19,11.49-0.22c2.05,0.97,20.47-15.7,20.47-15.7l3.43,3.62
			l14.97-19.47l4.84,4.58c7.84-8.82,25.95-28.76,24.57-23.17c-1.5,6.06-15.53,22.93-19.66,27.81l3.98,3.77l-24.14,11.3l3.17,3.34
			l-31.98,10.82l-9.26,4.85"/>
	</g>
	<path class="st2" d="M52.31,186.81c0,0-0.37-6.07,1.36-7.49"/>
	<path class="st2" d="M81.32,179.12"/>
	<path class="st2" d="M83.86,185.72"/>
	<path class="st0" d="M47.44,152.31"/>
	<path class="st0" d="M115.59,169.86c0,0,3.05-2.72,4.69-9.09c1.65-6.37,0.76-8.31,0.76-8.31l-12.34,19.94l-3.31,5.74
		c0,0,5.41,0.73,7.05-0.69S115.59,169.86,115.59,169.86z"/>
	<path class="st0" d="M84.78,186.32c0,0,15.29-7.7,15.88-11.24c0.59-3.54,0.69-2.51,0.69-2.51s-21.06,13.01-22.99,13.72
		C76.44,187.01,84.78,186.32,84.78,186.32z"/>
	<g>
		<path class="st1" d="M27.56,132.85c0.23,1.81,0.57,3.59,1.22,5.17c0.65,1.56,1.65,2.89,2.97,3.26c0.17,0.04,0.32,0.12,0.49,0.14
			l0.53,0.04c0.33,0.07,0.72-0.02,1.09-0.04c0.33-0.01,0.82-0.12,1.25-0.19l1.32-0.23c1.75-0.32,3.5-0.64,5.23-1.02
			c3.43-0.77,6.89-1.62,9.88-3.15c0.75-0.38,1.42-0.84,2.04-1.35c0.32-0.25,0.55-0.55,0.84-0.83c0.2-0.34,0.43-0.59,0.63-1.02
			c0.85-1.61,1.7-3.22,2.67-4.78c-0.35,1.8-0.83,3.56-1.3,5.32c-0.1,0.43-0.36,0.94-0.56,1.41c-0.28,0.42-0.54,0.89-0.87,1.26
			c-0.66,0.78-1.43,1.42-2.22,1.97c-3.23,2.21-6.88,3.27-10.47,4.09c-1.81,0.39-3.62,0.68-5.44,0.9l-1.37,0.15
			c-0.47,0.04-0.87,0.1-1.44,0.09c-0.54-0.02-1.06,0.05-1.61-0.11l-0.81-0.18c-0.27-0.08-0.52-0.22-0.78-0.34
			c-1.03-0.46-1.86-1.3-2.41-2.19c-0.56-0.9-0.84-1.87-1.05-2.81C27.06,136.52,27.13,134.64,27.56,132.85z"/>
	</g>
	<g>
		<path class="st1" d="M37.32,113.2c0.15,1.13,0.49,2.22,1.07,3.05c0.6,0.82,1.43,1.28,2.38,1.36c0.48,0.05,0.95,0,1.47-0.04
			l1.66-0.22c1.11-0.14,2.22-0.27,3.31-0.45c1.1-0.15,2.19-0.32,3.27-0.53c1.08-0.19,2.14-0.45,3.17-0.75
			c1-0.33,2.03-0.72,2.64-1.41c0.16-0.14,0.32-0.41,0.48-0.64l0.48-0.71c0.32-0.47,0.66-0.93,1.01-1.39
			c-0.16,0.55-0.33,1.1-0.51,1.64l-0.28,0.81c-0.1,0.27-0.17,0.52-0.35,0.83c-0.7,1.19-1.83,1.81-2.89,2.32
			c-2.18,0.98-4.46,1.45-6.72,1.8c-1.14,0.15-2.27,0.27-3.41,0.35l-1.71,0.08c-0.61,0.01-1.26,0-1.9-0.17
			c-0.64-0.15-1.27-0.43-1.79-0.86c-0.52-0.43-0.9-0.99-1.16-1.56C37.09,115.54,37.04,114.32,37.32,113.2z"/>
	</g>
	<g>
		<path class="st1" d="M79.73,109.33c-0.02,0.89,0.22,1.78,0.79,2.13c0.27,0.18,0.58,0.28,0.95,0.29c0.17,0.02,0.37,0,0.55,0.01
			l0.64-0.03c1.72-0.11,3.43-0.25,5.09-0.48c1.66-0.23,3.31-0.54,4.71-1.21l0.5-0.28c0.15-0.11,0.29-0.23,0.45-0.33
			c0.32-0.28,0.64-0.57,0.95-0.86c0.32-0.29,0.61-0.6,0.89-0.91c0.14-0.16,0.27-0.33,0.39-0.5c0.11-0.18,0.24-0.36,0.23-0.59
			c0.18,0.44,0.01,0.94-0.14,1.37c-0.16,0.44-0.38,0.85-0.6,1.25c-0.23,0.39-0.49,0.77-0.75,1.14c-0.16,0.19-0.33,0.38-0.51,0.57
			l-0.58,0.48c-1.62,1.14-3.47,1.62-5.27,1.87c-1.81,0.25-3.62,0.23-5.4,0.05c-0.8-0.08-2.06-0.22-2.79-1.13
			C79.12,111.21,79.31,110.1,79.73,109.33z"/>
	</g>
	
		<linearGradient id="SVGID_1_" gradientUnits="userSpaceOnUse" x1="163.3416" y1="158.6745" x2="163.3416" y2="124.5714" gradientTransform="matrix(0.7699 -0.1703 0.2778 1.2554 -41.9931 -107.0279)">
		<stop  offset="0" style="stop-color:#FDAA45"/>
		<stop  offset="1" style="stop-color:#FCD30F"/>
	</linearGradient>
	<path class="st3" d="M121.51,20.84c0.06,2.3,2.83,21.68-14.26,20.64c-6.18-0.38,13.31,2.42,13.31,2.42s1.59,9.49,3.48,16
		s0.77,4.89,0.77,4.89s-2.17-18.78,3.52-21.2c5.69-2.42,10.55-5.14,10.55-5.14s-12.85,2.76-14.07-2.75S121.51,20.84,121.51,20.84z"
		/>
</g>
</svg>
