<?xml version="1.0" encoding="utf-8"?>
<!-- Generator: Adobe Illustrator 23.1.0, SVG Export Plug-In . SVG Version: 6.00 Build 0)  -->
<svg version="1.1" xmlns="http://www.w3.org/2000/svg" xmlns:xlink="http://www.w3.org/1999/xlink" x="0px" y="0px"
	 viewBox="0 0 201 196" style="enable-background:new 0 0 201 196;" xml:space="preserve">
<style type="text/css">
	.st0{fill:#9D4AD3;stroke:#1B1464;stroke-width:2;stroke-linecap:round;stroke-linejoin:round;stroke-miterlimit:10;}
	.st1{fill:#1B1464;}
	.st2{fill:#662D91;stroke:#1B1464;stroke-width:2;stroke-linecap:round;stroke-linejoin:round;stroke-miterlimit:10;}
	.st3{fill:#F27CAD;}
	.st4{fill:#EA1B42;stroke:#1B1464;stroke-width:2;stroke-linecap:round;stroke-linejoin:round;stroke-miterlimit:10;}
</style>
<g id="Layer_3">
</g>
<g id="Layer_4">
	<g>
		<path class="st0" d="M32.26,130.99l3.47,1l-10.89,17.55l4.18,0.95c-0.62,5.02-2.59,22.27-1,27.02c1.47,4.38,4.79-16.63,6.14-25.85
			l5.08,1.16l1.48-19.41l3.76,1.08c0,0,4.86-17.77,6.6-17.95c1.74-0.17,18.97-3.98,23.73-0.26c4.76,3.72,5.1-6.27,5.1-6.27
			l-28.49-3.46L32.26,130.99z"/>
		<path class="st0" d="M53.24,126.51l-5.07,25.89l2.67-0.88l-1.69,17.29l3.14-1.23c1.2,3.81,5.45,16.82,8.06,19.43
			c2.41,2.41-2.14-13.86-4.2-20.95l3.81-1.5l-5.27-14.31l2.89-0.96c0,0-2.46-14.69-1.34-15.61c1.12-0.92,11.55-11.44,15.98-11
			c4.43,0.44,1.43-6.73,1.43-6.73L53.24,126.51z"/>
		<path class="st0" d="M23.55,131.36l6.84-20.92l3.95,2.6c0,0,10.2-17.84,12.21-17.38c2.01,0.46,22.44,2.71,26.82,8.61
			c4.38,5.9,7.42-5.02,7.42-5.02l-31.2-14.51l-28.1,19.84l3.65,2.4L8.19,122.32l4.46,2.62c-2.03,5.32-8.84,23.67-8.31,29.52
			c0.49,5.4,9.82-16.6,13.8-26.29L23.55,131.36z"/>
	</g>
	<path class="st0" d="M161.94,97.66c0-0.11-2.07-1.88-2.06-1.99l9.06,0.99c0,0-2.99-5.93-5-14c-0.92-3.68-4.01-6.23-6.84-10.16
		c-0.17-0.58-0.33-1.17-0.51-1.74l7.35,4.9c0,0-2.66-6.17-3.87-8.41c-0.67-1.25-6.11-6.95-10.79-11.75c-3.59-5.35-8-9.92-13.07-13.6
		c-3.61-6.63-7.79-12.43-11.97-14.09c-11.27-4.48-24.55-13.45-27.78-17.48c-3.22-4.03,4.43,11.2,8.45,14.34
		c4.03,3.14-1.21,3.59-10.06,0.45c-8.86-3.14-11.27-8.07-11.27-8.07s2.01,11.65,6.04,13.89c4.03,2.24-10.87-0.9-10.87-0.9
		s2.17,4.8,6.85,7.81C64.25,49.31,53.27,70.09,42.94,95.81c-2.9,0.14-4.4,2.02-4.03,6.85c0.99,13.28,4.45,33.03,20.38,45.58
		c-0.08,0.78-0.14,1.57-0.16,2.38c-0.4,14.34,9.66,25.55,12.88,26.44c3.22,0.9-3.62-3.14-6.44-13.89c0,0,1.04-4.43,2.47-9.47
		c6.1,2.98,13.45,5.11,22.39,6c3.11,0.51,6.31,0.78,9.6,0.78c0.23,0,0.45-0.02,0.68-0.02c-0.38,5.18-0.9,9.64-0.9,9.64
		c-5.88,9.01-13.08,10.26-10.02,10.61s15.35-6.42,19.6-19.96c0.12-0.39,0.23-0.77,0.34-1.16c1.12-0.21,2.22-0.44,3.32-0.71
		l-0.07,0.27c7.25-0.45,11.67-3.59,15.7-4.93c4.03-1.34,40.06-21.13,41.27-43.54C170.28,106.98,165.92,103.21,161.94,97.66z"/>
	<g>
		<path class="st0" d="M139.94,137.66c4.8,1.74,9.05,6.35,9.05,6.35c0.67,1.6-8.39,14.84-8.39,14.84l2.35,2.71l-11.58,11.15
			l2.99,3.82c-5.21,5.86-16.99,19.42-13.57,18.46c3.7-1.03,13.71-11.51,16.6-14.6l2.46,3.14l6.23-18.37l2.17,2.51l6.89-29.04
			l-3.2-6.98c0,0-2.11-6.64-2-8"/>
		<path class="st0" d="M151.94,121.66c6.28-0.84,9.2-0.08,10.8,1.15c1.6,1.23-1.81,22-1.81,22l4.11,1.2l-7.4,20.37l5.41,1.92
			c-2.89,10.07-9.25,33.16-5.84,29.65c3.69-3.8,9.64-22.3,11.33-27.71l4.46,1.58l-2.5-24.21l3.79,1.11l-7.34-36.12l-7.02-3.92
			c0.5-0.05-1.65,0.31-1,0c6.9-3.26,13.38-1.13,15.52-0.37c2.15,0.76,3.86,24.84,3.86,24.84l4.99-0.21l-2.93,25.13l6.66,0.09
			c-0.57,12.13-1.59,39.86,1.33,34.74c3.17-5.55,4.96-28.08,5.42-34.65l5.49,0.07l-9.34-25.66l4.6-0.2L176.5,95.49l-17.03,3.54
			c0,0-4.41,1.08-5.53-0.37"/>
	</g>
	<g>
		<path class="st1" d="M72.34,108.63c1.43,1.5,3.18,2.47,4.94,3.31c0.43,0.22,0.9,0.38,1.35,0.56c0.44,0.2,0.91,0.35,1.37,0.5
			c0.46,0.16,0.92,0.31,1.4,0.42c0.47,0.13,0.92,0.3,1.41,0.39l1.43,0.32l1.44,0.27c0.95,0.21,1.94,0.3,2.91,0.43
			c0.97,0.13,1.97,0.18,2.95,0.3l3.03,0.22c2.02,0.14,4.04,0.29,6.06,0.37c2.02,0.13,4.03,0.2,6.03,0.19c2.01,0.01,4-0.1,5.99-0.36
			c1.98-0.28,3.96-0.73,5.95-1.27c-1.8,0.98-3.7,1.82-5.7,2.41c-1.99,0.62-4.06,0.95-6.12,1.2c-2.07,0.23-4.13,0.31-6.19,0.37
			c-2.06,0.03-4.11-0.01-6.16-0.05l-3.07-0.12c-1.05-0.08-2.09-0.12-3.14-0.28c-2.08-0.31-4.17-0.7-6.18-1.42
			c-1-0.36-2-0.73-2.94-1.25c-0.96-0.47-1.88-1.02-2.73-1.67C74.67,112.2,73.09,110.61,72.34,108.63z"/>
	</g>
	<path class="st2" d="M68.94,153.66c0,0,1-6,3-7"/>
	<path class="st2" d="M99.94,159.66c0,0,0-5-1-7"/>
	<g>
		<path class="st1" d="M57.36,91.11c0.68-4.2,1.96-8.35,4.21-12.11c1.15-1.86,2.62-3.65,4.76-4.78c1.06-0.55,2.31-0.83,3.54-0.77
			c1.23,0.06,2.39,0.44,3.42,0.95c2.07,1.07,3.71,2.6,5.17,4.23c1.43,1.66,2.69,3.42,3.78,5.28c1.1,1.85,2.05,3.78,2.86,5.76
			c0.39,1,0.76,2,1.06,3.04c0.27,1.03,0.59,2.09,0.48,3.17c-0.02-0.53-0.2-1.03-0.39-1.52c-0.18-0.49-0.39-0.98-0.61-1.45
			c-0.44-0.95-0.91-1.89-1.43-2.81c-1-1.84-2.12-3.62-3.29-5.34c-1.2-1.7-2.45-3.37-3.86-4.85c-1.4-1.49-2.93-2.86-4.66-3.71
			c-0.85-0.44-1.75-0.73-2.64-0.79c-0.89-0.06-1.77,0.13-2.61,0.52c-1.69,0.77-3.08,2.31-4.29,3.94
			C60.51,83.22,58.82,87.13,57.36,91.11z"/>
	</g>
	<g>
		<path class="st1" d="M75.59,63.93c0.23-2.05,0.85-4.06,2-5.9c0.59-0.91,1.37-1.79,2.53-2.36c0.28-0.15,0.63-0.2,0.94-0.29
			c0.33-0.06,0.67-0.04,1.01-0.04c0.33,0.03,0.64,0.14,0.96,0.22c0.3,0.1,0.56,0.26,0.84,0.39c2.06,1.27,3.17,3.16,4.11,5.01
			c0.45,0.95,0.81,1.93,1.09,2.92c0.12,0.51,0.25,1.01,0.32,1.53c0.06,0.52,0.15,1.05,0.01,1.56c-0.23-0.98-0.77-1.85-1.24-2.72
			c-0.48-0.87-1.01-1.7-1.54-2.53c-1.09-1.6-2.32-3.19-3.73-4.04c-0.71-0.42-1.36-0.52-2.04-0.27c-0.7,0.24-1.38,0.86-2.01,1.54
			C77.62,60.4,76.6,62.15,75.59,63.93z"/>
	</g>
	<g>
		<path class="st1" d="M109.78,96.55c-0.42-2.21-0.59-4.47-0.6-6.73c0.02-2.26,0.19-4.56,0.85-6.82c0.33-1.13,0.78-2.26,1.52-3.27
			c0.72-1.01,1.79-1.93,3.09-2.33c1.29-0.4,2.67-0.28,3.79,0.03l0.88,0.19c0.28,0.09,0.56,0.2,0.84,0.3
			c0.55,0.21,1.13,0.38,1.64,0.66c4.23,2.07,7.67,5.21,10.59,8.69c1.48,1.73,2.76,3.62,3.89,5.59c0.27,0.5,0.55,0.99,0.78,1.52
			c0.23,0.52,0.5,1.02,0.67,1.57c0.41,1.05,0.68,2.2,0.65,3.32c-0.12-0.56-0.2-1.1-0.45-1.6c-0.18-0.52-0.44-1.01-0.7-1.5
			c-0.52-0.97-1.11-1.9-1.77-2.79c-1.28-1.79-2.69-3.5-4.22-5.08c-1.54-1.57-3.1-3.12-4.84-4.44c-1.71-1.34-3.49-2.61-5.44-3.48
			c-0.47-0.27-0.97-0.41-1.46-0.61c-0.25-0.09-0.49-0.19-0.74-0.28L118,79.33c-1.02-0.3-1.96-0.34-2.83-0.12
			c-1.76,0.45-2.95,2.3-3.67,4.28c-0.72,2.01-1.1,4.19-1.35,6.39C109.9,92.08,109.81,94.31,109.78,96.55z"/>
	</g>
	<g>
		<path class="st1" d="M109.68,63.83c-0.31-0.9-0.46-1.83-0.53-2.79c-0.04-0.96,0-1.95,0.36-2.96c0.08-0.25,0.2-0.51,0.35-0.75
			c0.12-0.26,0.34-0.48,0.55-0.7c0.19-0.24,0.5-0.38,0.77-0.56c0.28-0.16,0.6-0.22,0.91-0.31c1.29-0.16,2.23,0.19,3.19,0.55
			c1.87,0.8,3.38,2.07,4.66,3.5c0.64,0.71,1.19,1.51,1.67,2.34c0.43,0.84,0.89,1.78,0.77,2.75c-0.32-0.88-0.95-1.53-1.56-2.17
			c-0.62-0.64-1.28-1.24-1.96-1.8c-1.37-1.11-2.83-2.12-4.34-2.77c-0.73-0.31-1.6-0.56-2.15-0.52c-0.56,0.02-1.01,0.41-1.42,1.09
			C110.2,60.12,109.93,62,109.68,63.83z"/>
	</g>
	<ellipse class="st3" cx="147.06" cy="115.79" rx="25.02" ry="9.02"/>
	<ellipse class="st3" cx="44.93" cy="110" rx="25.02" ry="9.02"/>
	<path class="st4" d="M33.87,21.32c0,0-5.45-20.77-20.77-18.04c-7.32,1.3-14.64,8.85-6.47,21.79s25.87,24.85,27.23,25.19
		c1.36,0.34,23.06-19.41,26.55-23.15c4.77-5.11,6.56-15.55,1.02-20.09c-7.49-6.13-16.58-1.44-21.11,1.36
		C33.19,12.81,33.87,21.32,33.87,21.32z"/>
</g>
</svg>
