<?xml version="1.0" encoding="utf-8"?>
<!-- Generator: Adobe Illustrator 23.1.0, SVG Export Plug-In . SVG Version: 6.00 Build 0)  -->
<svg version="1.1" xmlns="http://www.w3.org/2000/svg" xmlns:xlink="http://www.w3.org/1999/xlink" x="0px" y="0px"
	 viewBox="0 0 201 196" style="enable-background:new 0 0 201 196;" xml:space="preserve">
<style type="text/css">
	.st0{fill:none;stroke:#1B1464;stroke-width:2;stroke-linecap:round;stroke-linejoin:round;stroke-miterlimit:10;}
	.st1{fill:#9D4AD3;stroke:#1B1464;stroke-width:2;stroke-linecap:round;stroke-linejoin:round;stroke-miterlimit:10;}
	.st2{fill:#FF0000;}
	.st3{font-family:'FranklinGothic-Medium';}
	.st4{font-size:73.1734px;}
</style>
<g id="Layer_3">
</g>
<g id="Layer_4">
	<line class="st0" x1="0" y1="170" x2="201" y2="170"/>
	<path class="st1" d="M91.82,164.22c0,0,9.4-7.23-15.91-6.51s-12.29-6.51-30.37-1.45s-28.92-2.17-24.58,5.78
		c4.34,7.95-10.85,10.85,7.23,12.29s5.06-2.89,25.31,3.62c20.24,6.51,10.12,15.91,23.86,10.85c13.74-5.06,13.74-8.68,13.74-8.68
		c15.18,0.72,4.34,5.06,20.97,5.78s11.57-1.45,28.2-4.34s13.01,1.45,20.97-5.78c7.95-7.23,22.41-15.18,3.62-15.18
		s-20.97,7.23-37.6,3.62C110.62,160.6,91.82,164.22,91.82,164.22z"/>
	<polyline class="st0" points="26.03,169.28 12.29,150.48 26.03,130.96 2.17,107.82 9.4,99.87 	"/>
	<polyline class="st0" points="57.84,165.66 60.01,138.91 47.72,114.33 52.06,99.87 47.72,82.51 	"/>
	<path class="st0" d="M54.95,173.62l-19.52,9.4c0,0-1.45,11.57,1.45,11.57l-13.74-4.34"/>
	<path class="st0" d="M122.19,168.55l-0.72-24.58l23.86-2.17l3.62-24.58l-15.91-13.01c0,0-3.62-3.62,2.89-6.51"/>
	<path class="st0" d="M156.9,167.11c0,0-9.4-23.14,5.06-27.47c14.46-4.34,25.31-10.12,18.08-20.97
		c-7.23-10.85-15.18-18.8-15.18-18.8l17.35,2.89"/>
	<path class="st0" d="M130.87,176.51l13.01-5.06c0,0,21.69,18.08,24.58,19.52c2.89,1.45,5.06-3.62,5.06-3.62"/>
	<text transform="matrix(0.696 -0.0165 0.0237 0.9997 62.004 83.8788)" class="st2 st3 st4">RIP</text>
</g>
</svg>
