<?xml version="1.0" encoding="utf-8"?>
<!-- Generator: Adobe Illustrator 23.1.0, SVG Export Plug-In . SVG Version: 6.00 Build 0)  -->
<svg version="1.1" xmlns="http://www.w3.org/2000/svg" xmlns:xlink="http://www.w3.org/1999/xlink" x="0px" y="0px"
	 viewBox="0 0 201 196" style="enable-background:new 0 0 201 196;" xml:space="preserve">
<style type="text/css">
	.st0{fill:#9D4AD3;stroke:#1B1464;stroke-width:2;stroke-linecap:round;stroke-linejoin:round;stroke-miterlimit:10;}
	.st1{fill:#FFFFFF;stroke:#1B1464;stroke-width:2;stroke-linecap:round;stroke-linejoin:round;stroke-miterlimit:10;}
	.st2{fill:#1B1464;stroke:#1B1464;stroke-width:2;stroke-linecap:round;stroke-linejoin:round;stroke-miterlimit:10;}
	.st3{font-family:'FranklinGothic-Medium';}
	.st4{font-size:61.4811px;}
	.st5{fill:#FCAB45;stroke:#1B1464;stroke-width:2;stroke-linecap:round;stroke-linejoin:round;stroke-miterlimit:10;}
	.st6{fill:#EDE9DD;}
	.st7{fill:#1B1464;}
</style>
<g id="Layer_3">
</g>
<g id="Layer_4">
	<g>
		<path class="st0" d="M33.89,118.99l3.34,0.96l-10.48,16.89l4.02,0.92c-0.6,4.83-2.49,21.43-0.96,26c1.41,4.22,4.6-16,5.91-24.87
			l4.88,1.12l1.43-18.68l3.62,1.04c0,0,4.67-17.1,6.35-17.27c1.68-0.17,18.25-3.82,22.83-0.25c4.58,3.58,4.91-6.03,4.91-6.03
			l-27.41-3.33L33.89,118.99z"/>
		<path class="st0" d="M25.51,119.34l6.58-20.13l3.8,2.5c0,0,9.82-17.16,11.75-16.72c1.93,0.44,21.59,2.61,25.8,8.29
			c4.21,5.68,7.14-4.83,7.14-4.83L50.57,74.49L23.53,93.58l3.51,2.31l-16.3,14.76l4.29,2.52c-1.96,5.12-8.51,22.77-8,28.4
			c0.47,5.19,9.45-15.98,13.28-25.3L25.51,119.34z"/>
	</g>
	<path class="st0" d="M158.66,86.92c0-0.1-1.99-1.81-1.99-1.91l8.72,0.95c0,0-2.87-5.71-4.81-13.47c-0.88-3.54-3.86-5.99-6.58-9.78
		c-0.16-0.56-0.32-1.13-0.49-1.68l7.07,4.72c0,0-2.56-5.93-3.72-8.09c-0.65-1.2-5.88-6.68-10.38-11.3
		c-3.46-5.15-7.69-9.55-12.57-13.09c-3.47-6.38-7.49-11.96-11.51-13.56C111.55,15.4,98.77,6.78,95.67,2.9
		c-3.1-3.88,4.26,10.78,8.13,13.8c3.87,3.02-1.16,3.45-9.68,0.43c-8.52-3.02-10.84-7.76-10.84-7.76s1.94,11.21,5.81,13.37
		c3.87,2.16-10.46-0.86-10.46-0.86s2.09,4.61,6.59,7.52c-20.55,11.01-31.11,31-41.05,55.75c-2.79,0.13-4.23,1.94-3.88,6.59
		c0.96,12.77,4.28,31.78,19.61,43.86c-0.08,0.75-0.13,1.51-0.16,2.29c-0.39,13.8,9.3,24.58,12.39,25.44
		c3.1,0.86-3.49-3.02-6.2-13.37c0,0,1-4.27,2.38-9.12c5.87,2.86,12.94,4.92,21.54,5.77c2.99,0.49,6.07,0.75,9.24,0.75
		c0.22,0,0.43-0.02,0.65-0.02c-0.36,4.99-0.86,9.27-0.86,9.27c-5.66,8.67-12.59,9.88-9.64,10.21c2.95,0.33,14.77-6.18,18.86-19.21
		c0.12-0.37,0.22-0.74,0.33-1.12c1.07-0.2,2.14-0.43,3.19-0.69l-0.07,0.26c6.97-0.43,11.23-3.45,15.1-4.74
		c3.87-1.29,38.54-20.33,39.7-41.89C166.69,95.89,162.49,92.26,158.66,86.92z"/>
	<g>
		<path class="st0" d="M145.43,116.23c6.04-0.81,8.85-0.08,10.39,1.1c1.54,1.18-1.74,21.17-1.74,21.17l3.95,1.15l-7.12,19.6
			l5.21,1.84c-2.78,9.69-8.9,31.9-5.62,28.53c3.55-3.66,9.28-21.46,10.9-26.66l4.29,1.52l-2.41-23.3l3.65,1.07l-7.06-34.76
			l-6.75-3.77c0.48-0.04-1.59,0.3-0.96,0c6.64-3.14,12.87-1.09,14.93-0.36c2.06,0.73,3.71,23.9,3.71,23.9l4.8-0.2l-2.82,24.17
			l6.41,0.09c-0.55,11.68-1.53,38.35,1.28,33.42c3.05-5.34,4.77-27.02,5.21-33.34l5.28,0.07l-8.99-24.69l4.43-0.19l-17.34-35.54
			l-16.38,3.41c0,0-4.25,1.04-5.32-0.36"/>
		<g>
			<rect x="42.24" y="121.15" class="st1" width="115.62" height="71.73"/>
			<text transform="matrix(0.8124 0 0 1 50.6304 177.9131)" class="st2 st3 st4">WTF</text>
		</g>
		<path class="st0" d="M47.11,109.64l-5.54,11.74l-4.48,24.98l2.56-0.89l-1.36,16.66l3-1.24c1.22,3.64,5.5,16.1,8.06,18.57
			c2.35,2.28-2.27-13.3-4.36-20.09l3.64-1.5l-5.29-13.68l2.77-0.96c0,0,4.54-23.84,5.61-24.74"/>
		<path class="st0" d="M140.56,119.95c4.84,0.1,10.1,3.03,10.1,3.03c1.1,1.27-2.76,16.32-2.76,16.32l2.96,1.77l-6.8,13.91l3.88,2.58
			c-2.79,7.04-8.99,23.23-6.25,21.28c2.98-2.11,8.58-14.91,10.18-18.66l3.2,2.13l-0.28-18.89l2.74,1.63l-3.09-28.94l-5.08-5.44
			c0,0-4-5.47-4.33-6.75"/>
	</g>
	<g id="Eyes_5_">
		<path class="st5" d="M87.17,83.07c-0.18,3.68-5.9,4.32-16.56,4.61s-20.96,1.6-20.77-2.08c0.11-2.29,3.54-4.39,8.67-5.73
			c3.14-0.82,6.1,1.37,10.14,1.26C79.3,80.84,87.35,79.38,87.17,83.07z"/>
		<path class="st5" d="M83.42,69.27c0.32,1.72-2.13,3.25-6.63,3.67c-4.5,0.42-8.66,0.23-8.98-1.49c-0.32-1.72,3.06-3.46,7.57-3.88
			S83.1,67.55,83.42,69.27z"/>
		<path class="st5" d="M109.34,53.33c0.4,5.17,3.99,5.63,9.74,6.83c7.86,1.64,14.03,0.45,12.77-4.59c-0.66-2.62-3.29-4.01-4.59-4.91
			c-1.18-0.82-3.85,0.28-5.57-0.66C116.55,47.2,108.94,48.16,109.34,53.33z"/>
		<path class="st5" d="M98.61,79.78c0.4,9.35,8.48,12.5,20.48,12.48s19.29-2.92,20.96-12.12c0.66-3.6-2.05-7.9-5.24-9.5
			c-3.19-1.6-10.32-0.49-15.39-2.62C108.35,63.39,98.21,70.43,98.61,79.78z"/>
		<path class="st6" d="M113.52,73.69c0,1.53-1.3,4.81-4.35,4.81c-3.05,0-8.7,0.05-8.7-1.48c0-1.53,4.31-6.66,7.36-6.66
			C110.88,70.36,113.52,72.16,113.52,73.69z"/>
		<path class="st6" d="M120.09,50.74c-0.28,1.27-3.47,3.96-5.73,3.46c-2.25-0.5-3.97-0.97-3.69-2.24c0.87-2.18,3.57-4.42,5.83-3.91
			C118.76,48.54,120.38,49.46,120.09,50.74z"/>
	</g>
	<g>
		<path class="st7" d="M64.71,108.31c5.43-2.27,11.17-3.82,17-4.76c5.84-0.96,11.8-1.3,17.73-0.88c2.96,0.23,5.92,0.63,8.83,1.28
			c1.47,0.25,2.88,0.75,4.32,1.15c1.45,0.39,2.82,0.89,4.2,1.37l8.3,2.92l4.14,1.5l2.08,0.72l1.04,0.36
			c0.17,0.05,0.35,0.11,0.52,0.14c0.08,0.06-0.05-0.03-0.12-0.06l-0.24-0.13l0.26,0.09c0.04,0.02,0.09,0.03,0.13,0.06
			c0.02,0.02,0.05,0,0.07,0.07c-0.04,0.07-0.07,0.03-0.1,0.04c-0.19-0.01-0.37-0.04-0.55-0.07l-1.09-0.21l-2.15-0.51l-4.28-1.07
			c-2.84-0.76-5.67-1.54-8.48-2.37c-1.41-0.4-2.82-0.84-4.22-1.18c-1.4-0.34-2.78-0.78-4.22-0.98c-2.83-0.57-5.7-0.94-8.59-1.14
			c-5.77-0.44-11.59-0.2-17.37,0.43c-2.89,0.32-5.78,0.76-8.65,1.3C70.4,106.88,67.56,107.56,64.71,108.31z"/>
	</g>
</g>
</svg>
