<?xml version="1.0" encoding="utf-8"?>
<!-- Generator: Adobe Illustrator 23.1.0, SVG Export Plug-In . SVG Version: 6.00 Build 0)  -->
<svg version="1.1" xmlns="http://www.w3.org/2000/svg" xmlns:xlink="http://www.w3.org/1999/xlink" x="0px" y="0px"
	 viewBox="0 0 201 196" style="enable-background:new 0 0 201 196;" xml:space="preserve">
<style type="text/css">
	.st0{fill:#9D4AD3;stroke:#1B1464;stroke-width:2;stroke-linecap:round;stroke-linejoin:round;stroke-miterlimit:10;}
	.st1{fill:#662D91;stroke:#1B1464;stroke-width:2;stroke-linecap:round;stroke-linejoin:round;stroke-miterlimit:10;}
	.st2{fill:#1B1464;stroke:#1B1464;stroke-width:2;stroke-linecap:round;stroke-linejoin:round;stroke-miterlimit:10;}
	.st3{fill:#EFB6D5;stroke:#1B1464;stroke-width:2;stroke-linecap:round;stroke-linejoin:round;stroke-miterlimit:10;}
	.st4{fill:#FFFFFF;stroke:#1B1464;stroke-width:2;stroke-linecap:round;stroke-linejoin:round;stroke-miterlimit:10;}
	.st5{fill:#6EABF4;stroke:#1B1464;stroke-width:2;stroke-linecap:round;stroke-linejoin:round;stroke-miterlimit:10;}
</style>
<g id="Layer_3">
</g>
<g id="Layer_4">
	<g>
		<path class="st0" d="M30.84,126.12l3.47,1l-10.89,17.55l4.18,0.95c-0.62,5.02-2.59,22.27-1,27.02c1.47,4.38,4.79-16.63,6.14-25.85
			l5.08,1.16l1.48-19.41l3.76,1.08c0,0,4.86-17.77,6.6-17.95c1.74-0.17,18.97-3.98,23.73-0.26c4.76,3.72,5.1-6.27,5.1-6.27
			L50,101.69L30.84,126.12z"/>
		<path class="st0" d="M51.81,121.64l-5.07,25.89l2.67-0.88l-1.69,17.29l3.14-1.23c1.2,3.81,5.45,16.82,8.06,19.43
			c2.41,2.41-2.14-13.86-4.2-20.95l3.81-1.5l-5.27-14.31l2.89-0.96c0,0-2.46-14.69-1.34-15.61c1.12-0.92,11.55-11.44,15.98-11
			c4.43,0.44,1.43-6.73,1.43-6.73L51.81,121.64z"/>
		<path class="st0" d="M22.13,126.48l6.84-20.92l3.95,2.6c0,0,10.2-17.84,12.21-17.38c2.01,0.46,22.44,2.71,26.82,8.61
			c4.38,5.9,7.42-5.02,7.42-5.02l-31.2-14.51l-28.1,19.84l3.65,2.4L6.77,117.45l4.46,2.62c-2.03,5.32-8.84,23.67-8.31,29.52
			c0.49,5.4,9.82-16.6,13.8-26.29L22.13,126.48z"/>
	</g>
	<path class="st0" d="M160.51,92.78c0-0.11-2.07-1.88-2.06-1.99l9.06,0.99c0,0-2.99-5.93-5-14c-0.92-3.68-4.01-6.23-6.84-10.16
		c-0.17-0.58-0.33-1.17-0.51-1.74l7.35,4.9c0,0-2.66-6.17-3.87-8.41c-0.67-1.25-6.11-6.95-10.79-11.75c-3.59-5.35-8-9.92-13.07-13.6
		c-3.61-6.63-7.79-12.43-11.97-14.09C111.55,18.46,98.27,9.49,95.05,5.46c-3.22-4.03,4.43,11.2,8.45,14.34
		c4.03,3.14-1.21,3.59-10.06,0.45c-8.86-3.14-11.27-8.07-11.27-8.07s2.01,11.65,6.04,13.89c4.03,2.24-10.87-0.9-10.87-0.9
		s2.17,4.8,6.85,7.81C62.83,44.44,51.85,65.21,41.52,90.93c-2.9,0.14-4.4,2.02-4.03,6.85c0.99,13.28,4.45,33.03,20.38,45.58
		c-0.08,0.78-0.14,1.57-0.16,2.38c-0.4,14.34,9.66,25.55,12.88,26.44c3.22,0.9-3.62-3.14-6.44-13.89c0,0,1.04-4.43,2.47-9.47
		c6.1,2.98,13.45,5.11,22.39,6c3.11,0.51,6.31,0.78,9.6,0.78c0.23,0,0.45-0.02,0.68-0.02c-0.38,5.18-0.9,9.64-0.9,9.64
		c-5.88,9.01-13.08,10.26-10.02,10.61s15.35-6.42,19.6-19.96c0.12-0.39,0.23-0.77,0.34-1.16c1.12-0.21,2.22-0.44,3.32-0.71
		l-0.07,0.27c7.25-0.45,11.67-3.59,15.7-4.93c4.03-1.34,40.06-21.13,41.27-43.54C168.86,102.11,164.5,98.34,160.51,92.78z"/>
	<g>
		<path class="st0" d="M138.51,132.78c4.8,1.74,9.05,6.35,9.05,6.35c0.67,1.6-8.39,14.84-8.39,14.84l2.35,2.71l-11.58,11.15
			l2.99,3.82c-5.21,5.86-16.99,19.42-13.57,18.46c3.7-1.03,13.71-11.51,16.6-14.6l2.46,3.14l6.23-18.37l2.17,2.51l6.89-29.04
			l-3.2-6.98c0,0-2.11-6.64-2-8"/>
		<path class="st0" d="M150.51,116.78c6.28-0.84,9.2-0.08,10.8,1.15c1.6,1.23-1.81,22-1.81,22l4.11,1.2l-7.4,20.37l5.41,1.92
			c-2.89,10.07-9.25,33.16-5.84,29.65c3.69-3.8,9.64-22.3,11.33-27.71l4.46,1.58l-2.5-24.21l3.79,1.11l-7.34-36.12l-7.02-3.92
			c0.5-0.05-1.65,0.31-1,0c6.9-3.26,13.38-1.13,15.52-0.37c2.15,0.76,3.86,24.84,3.86,24.84l4.99-0.21l-2.93,25.13l6.66,0.09
			c-0.57,12.13-1.59,39.86,1.33,34.74c3.17-5.55,4.96-28.08,5.42-34.65l5.49,0.07l-9.34-25.66l4.6-0.2l-18.03-36.94l-17.03,3.54
			c0,0-4.41,1.08-5.53-0.37"/>
	</g>
	<path class="st1" d="M67.51,148.78c0,0,1-6,3-7"/>
	<path class="st1" d="M98.51,154.78c0,0,0-5-1-7"/>
	<path class="st0" d="M55.43,76.19c0.85,0.85,6.47,5.79,11.23,8.51c4.77,2.72,9.53,3.91,10.55,4.26c1.02,0.34-26.38-0.34-26.38-0.34
		"/>
	<path class="st0" d="M69.55,60.19c5.62,5.28,8,8,9.53,7.83c0,0-8.51-1.02-9.53-1.02"/>
	<path class="st0" d="M129.13,79.77c-1.53,0.51-17.53,10.38-24.34,11.4s35.4-1.19,35.4-1.19"/>
	<path class="st0" d="M112.96,61.72c-10.55,8.17-12.77,8.51-12.77,8.51h12.94"/>
	<path class="st2" d="M79.09,109.72c4.54,0.16,8.85,4.09,16.85,0.34c0,0,14.13-4.77,18.55-7.15c4.43-2.38,11.74-8.51,13.79,11.23
		c-8,12.09-13.96,23.66-24.34,23.15c0,0-14.98,2.89-27.4-0.51s-14.98-7.15-15.66-13.11c0.51-11.91-13.45-25.19-3.23-22.64
		C67.85,103.6,74.15,109.55,79.09,109.72z"/>
	<path class="st3" d="M69.55,132.53c-0.62-0.45,7.83-10.04,14.13-8.17c6.3,1.87,7.49-0.51,10.21,0.17
		c2.72,0.68,10.72,13.45,10.72,13.45C103.6,139,79.43,139.68,69.55,132.53z"/>
	<path class="st4" d="M63.09,103.6c0.47,1.03,11.51,20.6,11.51,20.6l0.23-10.98L63.09,103.6z"/>
	<polygon class="st4" points="99.85,110.09 98.49,123.51 111.09,109.38 	"/>
	<path class="st5" d="M27.32,77.1c-7.85,1.19-11.63,2.99-7.8,9.68s13.03,8.28,17.9,7.61c4.88-0.67,12.11-1.55,12.11-1.55
		S34.31,76.04,27.32,77.1z"/>
	<path class="st5" d="M154.87,84.52c-1.46,1.27-14.28,10.3-14.28,10.3s14.83,5.48,23.73,0.47c8.9-5,11.25-15.7,1.72-15.8
		C156.5,79.39,154.87,84.52,154.87,84.52z"/>
	<path class="st3" d="M78.06,116.02"/>
</g>
</svg>
