<?xml version="1.0" encoding="utf-8"?>
<!-- Generator: Adobe Illustrator 23.1.0, SVG Export Plug-In . SVG Version: 6.00 Build 0)  -->
<svg version="1.1" xmlns="http://www.w3.org/2000/svg" xmlns:xlink="http://www.w3.org/1999/xlink" x="0px" y="0px"
	 viewBox="0 0 201 196" style="enable-background:new 0 0 201 196;" xml:space="preserve">
<style type="text/css">
	.st0{fill:#E5462C;stroke:#1B1464;stroke-width:2;stroke-linecap:round;stroke-linejoin:round;stroke-miterlimit:10;}
	.st1{fill:url(#SVGID_1_);stroke:#1B1464;stroke-width:2;stroke-linecap:round;stroke-linejoin:round;stroke-miterlimit:10;}
	.st2{fill:#662D91;stroke:#1B1464;stroke-width:2;stroke-linecap:round;stroke-linejoin:round;stroke-miterlimit:10;}
	.st3{fill:#FFFFFF;stroke:#1B1464;stroke-width:2;stroke-linecap:round;stroke-linejoin:round;stroke-miterlimit:10;}
	.st4{fill:#1B1464;stroke:#1B1464;stroke-width:2;stroke-linecap:round;stroke-linejoin:round;stroke-miterlimit:10;}
	.st5{fill:#EFB6D5;stroke:#1B1464;stroke-width:2;stroke-linecap:round;stroke-linejoin:round;stroke-miterlimit:10;}
	.st6{fill:#FFBC00;stroke:#1B1464;stroke-width:2;stroke-linecap:round;stroke-linejoin:round;stroke-miterlimit:10;}
	.st7{fill:#FF0000;}
</style>
<g id="Layer_3">
</g>
<g id="Layer_4">
	<g>
		<path class="st0" d="M49.39,146.03l2.98-0.05l-4.35,16.47l3.53-0.26c0.72,4.11,3.33,18.19,5.73,21.55
			c2.21,3.1-0.24-14.27-1.4-21.87l4.28-0.31l-3.52-15.67l3.22-0.06c0,0-0.46-15.19,0.87-15.74c1.33-0.56,14-7.71,18.65-5.93
			c4.65,1.78,2.51-6.18,2.51-6.18l-23.31,4.15L49.39,146.03z"/>
		<path class="st0" d="M56.75,135.7l2.44,21.62l1.88-1.36l2.96,14.02l2.16-1.75c1.89,2.7,8.46,11.88,11.17,13.28
			c2.49,1.3-5.12-10.37-8.51-15.44l2.62-2.13l-7.7-9.94l2.04-1.47c0,0-5.58-10.95-4.93-11.95c0.66-1,6.25-11.86,9.84-12.61
			c3.59-0.75-0.55-5.65-0.55-5.65L56.75,135.7z"/>
		<path class="st0" d="M42.61,148.42l0.34-18.15l3.74,1.1c0,0,3.74-16.53,5.44-16.65c1.7-0.12,18.35-3.28,23.23,0.32
			c4.88,3.6,4.64-5.75,4.64-5.75l-28.11-3.92L34.53,127.8l3.46,1.01L28.32,145l4.15,0.99c-0.32,4.69-1.26,20.8,0.57,25.29
			c1.69,4.14,3.73-15.46,4.54-24.07L42.61,148.42z"/>
	</g>
	<radialGradient id="SVGID_1_" cx="109.7047" cy="81.6385" r="51.4305" fx="108.6766" fy="55.9098" gradientUnits="userSpaceOnUse">
		<stop  offset="0.1337" style="stop-color:#FFDE00"/>
		<stop  offset="0.406" style="stop-color:#F6AA0F"/>
		<stop  offset="0.8036" style="stop-color:#EA6224"/>
		<stop  offset="0.9888" style="stop-color:#E5462C"/>
	</radialGradient>
	<path class="st1" d="M153.22,105.84c0-0.09-1.7-1.55-1.7-1.64l7.47,0.81c0,0-2.46-4.89-4.12-11.55c-0.76-3.04,2.03-4.95-0.3-8.19
		c-0.14-0.48,0.15-4.3,0-4.77l-1.4-8.14c-0.88-16.8-2.26-5.34-3.09-3.93c-0.59,1.01,0.77,3.11-3.09-0.84
		c-2.96-4.41-5.36-24.2-9.55-27.23c-4.49-12.63-4.35,21.74-14.32-1.12c-3.48-7.98-3.3-9.85-7.3-15.16
		c-1.49-1.97-2.89,1.66-4.49,1.12c-1.81-0.6-5.33-14.32-4.21-11.79c1.52,3.42-5.05,16.21-5.05,23.3c0,1.68,0.28,6.46-1.68,4.21
		c-5.1-5.83-7.3-7.02-7.3-7.02s-2.76,18.09,0.56,19.93c3.32,1.85-8.14-15.72-8.14-15.72s0.49,9.21-2.53,11.79
		c-1.97,1.68-1.4,8.14-1.68,5.05c-17.61,9.44-12.35,27.79-26.21,49.36c-2.39,0.11-3.63,1.66-3.33,5.65
		c0.82,10.95,3.67,27.24,16.81,37.59c-0.06,0.64,1.52,7.81,1.5,8.47c-0.33,11.83,16.52,9.09,17.97,6.74
		c1.68-2.74-6.53,1.68-10.53-6.95c0,0-0.21-2.53-0.7-6.25c5.03,2.45,10.07,6.69,17.44,7.43c2.56,0.42,5.2,0.65,7.92,0.65
		c0.19,0,1.3-2.58,1.03-1.19c1.26,2.95,1.26,4.84,1.26,4.84c-3.16,4.21-14.53,0.35-12,0.63c2.53,0.29,12.42,14.95,17.43-4.06
		c0.09-0.32,0.19-0.64,0.28-0.96c0.92-0.17,1.83-0.36,2.74-0.59l-0.06,0.22c5.98-0.37,9.63-2.96,12.95-4.07
		c3.32-1.11,33.04-17.42,34.03-35.91C160.11,113.53,156.51,110.42,153.22,105.84z"/>
	<g>
		<path class="st0" d="M125.46,144.8c3.32,2.59,5.47,7.3,5.47,7.3c0.11,1.42-10.37,9.5-10.37,9.5l1.15,2.73l-11.93,5.78l1.37,3.76
			c-5.58,3.26-18.29,10.88-15.36,11.01c3.17,0.14,13.69-5.52,16.75-7.2l1.13,3.09l9.58-12.81l1.06,2.52l12.83-21.01l-0.72-6.29
			c0,0,0.05-5.75,0.48-6.78"/>
		<path class="st0" d="M135.47,128.87c5.16,0.82,7.29,2.11,8.26,3.46c0.97,1.35-6.63,16.96-6.63,16.96l2.96,1.92l-10.66,14.34
			l3.82,2.79c-4.66,7.27-15.14,24.01-11.62,22.05c3.81-2.13,12.89-15.34,15.5-19.22l3.15,2.3l3.75-19.72l2.74,1.77l2.74-30.28
			l-4.62-4.76c0.41,0.08-1.38-0.15-0.79-0.24c6.22-0.95,10.84,2.27,12.35,3.38c1.52,1.1-2.83,20.53-2.83,20.53l3.99,1.01
			l-8.26,19.16l5.24,1.64c-3.32,9.45-10.68,31.12-7.16,27.76c3.82-3.63,10.56-21.02,12.47-26.1l4.32,1.35l-1.31-22.48l3.68,0.93
			L161.06,114l-14.29-1.23c0,0-3.74-0.19-4.29-1.6"/>
	</g>
	<path class="st2" d="M76.66,150.34c0,0,0.82-4.95,2.47-5.77"/>
	<path class="st2" d="M103.14,155.92c0,0,0-4.12-0.82-5.77"/>
	<path class="st3" d="M68.8,89.52c1.4-1.41,4.42,10.89,14.65,15.72s8.99,3.23,8.99,3.23s-16.06,2.14-23.02-4.57
		C62.45,97.19,67.92,90.41,68.8,89.52z"/>
	<path class="st3" d="M80.57,79.06c3.05,6.51,5.46,9.89,11.37,12.49c5.92,2.6-18.24-5.54-17.25-8.18
		C75.68,80.72,80.57,79.06,80.57,79.06z"/>
	<path class="st3" d="M108.51,109.05c0,0,13.86-3.64,21.13-13.49c7.27-9.85,13.65-2.4,9.04,7.51c-4.61,9.92-16.05,6.07-21.4,6.82
		S108.51,109.05,108.51,109.05z"/>
	<path class="st3" d="M117.36,86.82c4.73-1.93,9.02-3.28,11.83-5.99c2.81-2.7,8.66,1.16,0.02,4.81S117.36,86.82,117.36,86.82z"/>
	<path class="st4" d="M71.89,116.79c-1.12,0.56,1.33,18.32-1.75,21.97c-3.09,3.65,42.89,5.19,52.43,4.63c0,0-7.58-4.42-2.32-18.74
		c0.51-0.1,4.63-4.32,4.63-4.42c-0.02-1.11-28.51-1.92-44.01-2.88C80.87,117.35,80.63,117.34,71.89,116.79z"/>
	<polygon class="st3" points="79.61,117.56 85.5,133.29 87.47,118 	"/>
	<polygon class="st3" points="104.03,118.41 106.28,133.57 112.74,120.09 	"/>
	<path class="st5" d="M78.98,141.08c0,0,5.79-10.46,11.58-8.35c6.18,2.25,2.53-1.12,8.42,1.12s10.39,8.98,10.39,8.98L78.98,141.08z"
		/>
	<path class="st6" d="M113.02,11.16c3.93,0,2.53-0.28,0.56-6.46S109.09,11.16,113.02,11.16z"/>
	<path class="st6" d="M83.54,18.18c-0.16,0.05-0.28,0.46-0.36,1.08c-0.32,2.62,0.17,8.93,1.76,7.34
		C86.91,24.63,83.54,18.18,83.54,18.18z"/>
	<path class="st6" d="M151.76,36.99c-2.53,5.9-3.09,8.98-1.12,6.46c1.97-2.53,4.49-7.58,2.81-7.58S151.76,36.99,151.76,36.99z"/>
	<g>
		<path class="st7" d="M29.07,31.75c0,0,16.72,23.6,2.95,24.59c-13.77,0.98-17.81,0.76-17.81,0.76l3.5,7.87l22.73-2.62
			c0,0,6.56-6.99,2.62-13.11s-9.62-18.8-9.62-18.8L29.07,31.75z"/>
		<path class="st7" d="M19.02,71.53l0.87,5.25c0,0,19.23-2.19,20.54-1.31c1.31,0.87,2.62,11.8,2.19,13.55s5.25,0.87,5.25,0.87
			s-2.19-12.68-2.62-15.3s-4.37-4.81-9.62-4.81S19.02,71.53,19.02,71.53z"/>
		<path class="st7" d="M45.68,30c0,0,3.93,30.6,9.18,29.72s20.98-3.06,20.98-3.06l-0.44-5.25c0,0-17.48,3.06-18.8,2.62
			c-1.31-0.44-5.68-10.93-5.68-14.42c0-3.5-1.75-9.62-1.75-9.62H45.68z"/>
		<path class="st7" d="M56.17,87.26L53.11,72.4c0,0,0-3.93,3.93-4.37s19.23-0.87,19.23-0.87l0.44,3.06L58.36,72.4
			c0,0,0,12.68,1.75,13.99C61.85,87.7,56.17,87.26,56.17,87.26z"/>
	</g>
</g>
</svg>
